<?xml version="1.0" encoding="utf-8"?>
<!-- Generator: Adobe Illustrator 22.1.0, SVG Export Plug-In . SVG Version: 6.00 Build 0)  -->
<svg version="1.1" id="Layer_1" xmlns="http://www.w3.org/2000/svg" xmlns:xlink="http://www.w3.org/1999/xlink" x="0px" y="0px"
	 viewBox="0 0 1920 1080" style="enable-background:new 0 0 1920 1080;" xml:space="preserve">
<style type="text/css">
	.st0{fill:#F06449;}
	.st1{clip-path:url(#SVGID_2_);}
	.st2{fill:#90BE6D;}
	.st3{fill:#69995D;}
	.st4{fill:none;stroke:#69995D;stroke-width:3;stroke-miterlimit:10;}
</style>
<g>
	<defs>
		<rect id="SVGID_1_" x="-5" y="-5" width="1930" height="1085"/>
	</defs>
	<clipPath id="SVGID_2_">
		<use xlink:href="#SVGID_1_"  style="overflow:visible;"/>
	</clipPath>
	<g class="st1">
		<polygon class="st2" points="23.5,1305 23.5,571.3 66.5,557 66.5,1305 		"/>
		<polygon class="st3" points="23.5,718.8 66.5,718.8 38.5,699.1 39.3,566 23.5,571.3 		"/>
		<polygon class="st3" points="24,864.9 67,864.9 39,845.2 39.8,712.1 24,717.4 		"/>
		<polygon class="st3" points="24,996.2 67,996.2 39,976.6 39,845.2 24,848.8 		"/>
		<polygon class="st3" points="24,1134.8 67,1134.8 39,1115.1 39.8,982 24,987.3 		"/>
	</g>
	<g class="st1">
		<polygon class="st2" points="97.5,1305 97.5,571.3 140.5,557 140.5,1305 		"/>
		<polygon class="st3" points="97.5,718.8 140.5,718.8 112.5,699.1 113.3,566 97.5,571.3 		"/>
		<polygon class="st3" points="98,864.9 141,864.9 113,845.2 113.8,712.1 98,717.4 		"/>
		<polygon class="st3" points="98,996.2 141,996.2 113,976.6 113,845.2 98,848.8 		"/>
		<polygon class="st3" points="98,1134.8 141,1134.8 113,1115.1 113.8,982 98,987.3 		"/>
	</g>
	<g class="st1">
		<polygon class="st2" points="171.5,1305 171.5,571.3 214.5,557 214.5,1305 		"/>
		<polygon class="st3" points="171.5,718.8 214.5,718.8 186.5,699.1 187.3,566 171.5,571.3 		"/>
		<polygon class="st3" points="172,864.9 215,864.9 187,845.2 187.8,712.1 172,717.4 		"/>
		<polygon class="st3" points="172,996.2 215,996.2 187,976.6 187,845.2 172,848.8 		"/>
		<polygon class="st3" points="172,1134.8 215,1134.8 187,1115.1 187.8,982 172,987.3 		"/>
	</g>
	<g class="st1">
		<polygon class="st2" points="245.5,1305 245.5,571.3 288.5,557 288.5,1305 		"/>
		<polygon class="st3" points="245.5,718.8 288.5,718.8 260.5,699.1 261.3,566 245.5,571.3 		"/>
		<polygon class="st3" points="246,864.9 289,864.9 261,845.2 261.8,712.1 246,717.4 		"/>
		<polygon class="st3" points="246,996.2 289,996.2 261,976.6 261,845.2 246,848.8 		"/>
		<polygon class="st3" points="246,1134.8 289,1134.8 261,1115.1 261.8,982 246,987.3 		"/>
	</g>
	<g class="st1">
		<polygon class="st2" points="319.5,1305 319.5,571.3 362.5,557 362.5,1305 		"/>
		<polygon class="st3" points="319.5,718.8 362.5,718.8 334.5,699.1 335.3,566 319.5,571.3 		"/>
		<polygon class="st3" points="320,864.9 363,864.9 335,845.2 335.8,712.1 320,717.4 		"/>
		<polygon class="st3" points="320,996.2 363,996.2 335,976.6 335,845.2 320,848.8 		"/>
		<polygon class="st3" points="320,1134.8 363,1134.8 335,1115.1 335.8,982 320,987.3 		"/>
	</g>
	<g class="st1">
		<polygon class="st2" points="393.5,1305 393.5,571.3 436.5,557 436.5,1305 		"/>
		<polygon class="st3" points="393.5,718.8 436.5,718.8 408.5,699.1 409.3,566 393.5,571.3 		"/>
		<polygon class="st3" points="394,864.9 437,864.9 409,845.2 409.8,712.1 394,717.4 		"/>
		<polygon class="st3" points="394,996.2 437,996.2 409,976.6 409,845.2 394,848.8 		"/>
		<polygon class="st3" points="394,1134.8 437,1134.8 409,1115.1 409.8,982 394,987.3 		"/>
	</g>
	<g class="st1">
		<polygon class="st2" points="467.5,1305 467.5,571.3 510.5,557 510.5,1305 		"/>
		<polygon class="st3" points="467.5,718.8 510.5,718.8 482.5,699.1 483.3,566 467.5,571.3 		"/>
		<polygon class="st3" points="468,864.9 511,864.9 483,845.2 483.8,712.1 468,717.4 		"/>
		<polygon class="st3" points="468,996.2 511,996.2 483,976.6 483,845.2 468,848.8 		"/>
		<polygon class="st3" points="468,1134.8 511,1134.8 483,1115.1 483.8,982 468,987.3 		"/>
	</g>
	<g class="st1">
		<polygon class="st2" points="541.5,1305 541.5,571.3 584.5,557 584.5,1305 		"/>
		<polygon class="st3" points="541.5,718.8 584.5,718.8 556.5,699.1 557.3,566 541.5,571.3 		"/>
		<polygon class="st3" points="542,864.9 585,864.9 557,845.2 557.8,712.1 542,717.4 		"/>
		<polygon class="st3" points="542,996.2 585,996.2 557,976.6 557,845.2 542,848.8 		"/>
		<polygon class="st3" points="542,1134.8 585,1134.8 557,1115.1 557.8,982 542,987.3 		"/>
	</g>
	<g class="st1">
		<polygon class="st2" points="615.5,1305 615.5,571.3 658.5,557 658.5,1305 		"/>
		<polygon class="st3" points="615.5,718.8 658.5,718.8 630.5,699.1 631.3,566 615.5,571.3 		"/>
		<polygon class="st3" points="616,864.9 659,864.9 631,845.2 631.8,712.1 616,717.4 		"/>
		<polygon class="st3" points="616,996.2 659,996.2 631,976.6 631,845.2 616,848.8 		"/>
		<polygon class="st3" points="616,1134.8 659,1134.8 631,1115.1 631.8,982 616,987.3 		"/>
	</g>
	<g class="st1">
		<polygon class="st2" points="689.5,1305 689.5,571.3 732.5,557 732.5,1305 		"/>
		<polygon class="st3" points="689.5,718.8 732.5,718.8 704.5,699.1 705.3,566 689.5,571.3 		"/>
		<polygon class="st3" points="690,864.9 733,864.9 705,845.2 705.8,712.1 690,717.4 		"/>
		<polygon class="st3" points="690,996.2 733,996.2 705,976.6 705,845.2 690,848.8 		"/>
		<polygon class="st3" points="690,1134.8 733,1134.8 705,1115.1 705.8,982 690,987.3 		"/>
	</g>
	<g class="st1">
		<polygon class="st2" points="763.5,1305 763.5,571.3 806.5,557 806.5,1305 		"/>
		<polygon class="st3" points="763.5,718.8 806.5,718.8 778.5,699.1 779.3,566 763.5,571.3 		"/>
		<polygon class="st3" points="764,864.9 807,864.9 779,845.2 779.8,712.1 764,717.4 		"/>
		<polygon class="st3" points="764,996.2 807,996.2 779,976.6 779,845.2 764,848.8 		"/>
		<polygon class="st3" points="764,1134.8 807,1134.8 779,1115.1 779.8,982 764,987.3 		"/>
	</g>
	<g class="st1">
		<polygon class="st2" points="837.5,1305 837.5,571.3 880.5,557 880.5,1305 		"/>
		<polygon class="st3" points="837.5,718.8 880.5,718.8 852.5,699.1 853.3,566 837.5,571.3 		"/>
		<polygon class="st3" points="838,864.9 881,864.9 853,845.2 853.8,712.1 838,717.4 		"/>
		<polygon class="st3" points="838,996.2 881,996.2 853,976.6 853,845.2 838,848.8 		"/>
		<polygon class="st3" points="838,1134.8 881,1134.8 853,1115.1 853.8,982 838,987.3 		"/>
	</g>
	<g class="st1">
		<polygon class="st2" points="911.5,1305 911.5,571.3 954.5,557 954.5,1305 		"/>
		<polygon class="st3" points="911.5,718.8 954.5,718.8 926.5,699.1 927.3,566 911.5,571.3 		"/>
		<polygon class="st3" points="912,864.9 955,864.9 927,845.2 927.8,712.1 912,717.4 		"/>
		<polygon class="st3" points="912,996.2 955,996.2 927,976.6 927,845.2 912,848.8 		"/>
		<polygon class="st3" points="912,1134.8 955,1134.8 927,1115.1 927.8,982 912,987.3 		"/>
	</g>
	<g class="st1">
		<polygon class="st2" points="985.5,1305 985.5,571.3 1028.5,557 1028.5,1305 		"/>
		<polygon class="st3" points="985.5,718.8 1028.5,718.8 1000.5,699.1 1001.3,566 985.5,571.3 		"/>
		<polygon class="st3" points="986,864.9 1029,864.9 1001,845.2 1001.8,712.1 986,717.4 		"/>
		<polygon class="st3" points="986,996.2 1029,996.2 1001,976.6 1001,845.2 986,848.8 		"/>
		<polygon class="st3" points="986,1134.8 1029,1134.8 1001,1115.1 1001.8,982 986,987.3 		"/>
	</g>
	<g class="st1">
		<polygon class="st2" points="1059.5,1305 1059.5,571.3 1102.5,557 1102.5,1305 		"/>
		<polygon class="st3" points="1059.5,718.8 1102.5,718.8 1074.5,699.1 1075.3,566 1059.5,571.3 		"/>
		<polygon class="st3" points="1060,864.9 1103,864.9 1075,845.2 1075.8,712.1 1060,717.4 		"/>
		<polygon class="st3" points="1060,996.2 1103,996.2 1075,976.6 1075,845.2 1060,848.8 		"/>
		<polygon class="st3" points="1060,1134.8 1103,1134.8 1075,1115.1 1075.8,982 1060,987.3 		"/>
	</g>
	<g class="st1">
		<polygon class="st2" points="1133.5,1305 1133.5,571.3 1176.5,557 1176.5,1305 		"/>
		<polygon class="st3" points="1133.5,718.8 1176.5,718.8 1148.5,699.1 1149.3,566 1133.5,571.3 		"/>
		<polygon class="st3" points="1134,864.9 1177,864.9 1149,845.2 1149.8,712.1 1134,717.4 		"/>
		<polygon class="st3" points="1134,996.2 1177,996.2 1149,976.6 1149,845.2 1134,848.8 		"/>
		<polygon class="st3" points="1134,1134.8 1177,1134.8 1149,1115.1 1149.8,982 1134,987.3 		"/>
	</g>
	<g class="st1">
		<polygon class="st2" points="1207.5,1305 1207.5,571.3 1250.5,557 1250.5,1305 		"/>
		<polygon class="st3" points="1207.5,718.8 1250.5,718.8 1222.5,699.1 1223.3,566 1207.5,571.3 		"/>
		<polygon class="st3" points="1208,864.9 1251,864.9 1223,845.2 1223.8,712.1 1208,717.4 		"/>
		<polygon class="st3" points="1208,996.2 1251,996.2 1223,976.6 1223,845.2 1208,848.8 		"/>
		<polygon class="st3" points="1208,1134.8 1251,1134.8 1223,1115.1 1223.8,982 1208,987.3 		"/>
	</g>
	<g class="st1">
		<polygon class="st2" points="1281.5,1305 1281.5,571.3 1324.5,557 1324.5,1305 		"/>
		<polygon class="st3" points="1281.5,718.8 1324.5,718.8 1296.5,699.1 1297.3,566 1281.5,571.3 		"/>
		<polygon class="st3" points="1282,864.9 1325,864.9 1297,845.2 1297.8,712.1 1282,717.4 		"/>
		<polygon class="st3" points="1282,996.2 1325,996.2 1297,976.6 1297,845.2 1282,848.8 		"/>
		<polygon class="st3" points="1282,1134.8 1325,1134.8 1297,1115.1 1297.8,982 1282,987.3 		"/>
	</g>
	<g class="st1">
		<polygon class="st2" points="1355.5,1305 1355.5,571.3 1398.5,557 1398.5,1305 		"/>
		<polygon class="st3" points="1355.5,718.8 1398.5,718.8 1370.5,699.1 1371.3,566 1355.5,571.3 		"/>
		<polygon class="st3" points="1356,864.9 1399,864.9 1371,845.2 1371.8,712.1 1356,717.4 		"/>
		<polygon class="st3" points="1356,996.2 1399,996.2 1371,976.6 1371,845.2 1356,848.8 		"/>
		<polygon class="st3" points="1356,1134.8 1399,1134.8 1371,1115.1 1371.8,982 1356,987.3 		"/>
	</g>
	<g class="st1">
		<polygon class="st2" points="1429.5,1305 1429.5,571.3 1472.5,557 1472.5,1305 		"/>
		<polygon class="st3" points="1429.5,718.8 1472.5,718.8 1444.5,699.1 1445.3,566 1429.5,571.3 		"/>
		<polygon class="st3" points="1430,864.9 1473,864.9 1445,845.2 1445.8,712.1 1430,717.4 		"/>
		<polygon class="st3" points="1430,996.2 1473,996.2 1445,976.6 1445,845.2 1430,848.8 		"/>
		<polygon class="st3" points="1430,1134.8 1473,1134.8 1445,1115.1 1445.8,982 1430,987.3 		"/>
	</g>
	<g class="st1">
		<polygon class="st2" points="1503.5,1305 1503.5,571.3 1546.5,557 1546.5,1305 		"/>
		<polygon class="st3" points="1503.5,718.8 1546.5,718.8 1518.5,699.1 1519.3,566 1503.5,571.3 		"/>
		<polygon class="st3" points="1504,864.9 1547,864.9 1519,845.2 1519.8,712.1 1504,717.4 		"/>
		<polygon class="st3" points="1504,996.2 1547,996.2 1519,976.6 1519,845.2 1504,848.8 		"/>
		<polygon class="st3" points="1504,1134.8 1547,1134.8 1519,1115.1 1519.8,982 1504,987.3 		"/>
	</g>
	<g class="st1">
		<polygon class="st2" points="1577.5,1305 1577.5,571.3 1620.5,557 1620.5,1305 		"/>
		<polygon class="st3" points="1577.5,718.8 1620.5,718.8 1592.5,699.1 1593.3,566 1577.5,571.3 		"/>
		<polygon class="st3" points="1578,864.9 1621,864.9 1593,845.2 1593.8,712.1 1578,717.4 		"/>
		<polygon class="st3" points="1578,996.2 1621,996.2 1593,976.6 1593,845.2 1578,848.8 		"/>
		<polygon class="st3" points="1578,1134.8 1621,1134.8 1593,1115.1 1593.8,982 1578,987.3 		"/>
	</g>
	<g class="st1">
		<polygon class="st2" points="1651.5,1305 1651.5,571.3 1694.5,557 1694.5,1305 		"/>
		<polygon class="st3" points="1651.5,718.8 1694.5,718.8 1666.5,699.1 1667.3,566 1651.5,571.3 		"/>
		<polygon class="st3" points="1652,864.9 1695,864.9 1667,845.2 1667.8,712.1 1652,717.4 		"/>
		<polygon class="st3" points="1652,996.2 1695,996.2 1667,976.6 1667,845.2 1652,848.8 		"/>
		<polygon class="st3" points="1652,1134.8 1695,1134.8 1667,1115.1 1667.8,982 1652,987.3 		"/>
	</g>
	<g class="st1">
		<polygon class="st2" points="1725.5,1305 1725.5,571.3 1768.5,557 1768.5,1305 		"/>
		<polygon class="st3" points="1725.5,718.8 1768.5,718.8 1740.5,699.1 1741.3,566 1725.5,571.3 		"/>
		<polygon class="st3" points="1726,864.9 1769,864.9 1741,845.2 1741.8,712.1 1726,717.4 		"/>
		<polygon class="st3" points="1726,996.2 1769,996.2 1741,976.6 1741,845.2 1726,848.8 		"/>
		<polygon class="st3" points="1726,1134.8 1769,1134.8 1741,1115.1 1741.8,982 1726,987.3 		"/>
	</g>
	<g class="st1">
		<polygon class="st2" points="1799.5,1305 1799.5,571.3 1842.5,557 1842.5,1305 		"/>
		<polygon class="st3" points="1799.5,718.8 1842.5,718.8 1814.5,699.1 1815.3,566 1799.5,571.3 		"/>
		<polygon class="st3" points="1800,864.9 1843,864.9 1815,845.2 1815.8,712.1 1800,717.4 		"/>
		<polygon class="st3" points="1800,996.2 1843,996.2 1815,976.6 1815,845.2 1800,848.8 		"/>
		<polygon class="st3" points="1800,1134.8 1843,1134.8 1815,1115.1 1815.8,982 1800,987.3 		"/>
	</g>
	<g class="st1">
		<polygon class="st2" points="1873.5,1305 1873.5,571.3 1916.5,557 1916.5,1305 		"/>
		<polygon class="st3" points="1873.5,718.8 1916.5,718.8 1888.5,699.1 1889.3,566 1873.5,571.3 		"/>
		<polygon class="st3" points="1874,864.9 1917,864.9 1889,845.2 1889.8,712.1 1874,717.4 		"/>
		<polygon class="st3" points="1874,996.2 1917,996.2 1889,976.6 1889,845.2 1874,848.8 		"/>
		<polygon class="st3" points="1874,1134.8 1917,1134.8 1889,1115.1 1889.8,982 1874,987.3 		"/>
	</g>
</g>
</svg>
